<?xml version="1.0" standalone="no"?>
<!DOCTYPE svg PUBLIC "-//W3C//DTD SVG 20010904//EN"
 "http://www.w3.org/TR/2001/REC-SVG-20010904/DTD/svg10.dtd">
<svg version="1.0" xmlns="http://www.w3.org/2000/svg"
 width="1024.000000pt" height="1024.000000pt" viewBox="0 0 1024.000000 1024.000000"
 preserveAspectRatio="xMidYMid meet">

<g transform="translate(0.000000,1024.000000) scale(0.100000,-0.100000)"
fill="#000000" stroke="none">
<path d="M7249 7600 c-290 -37 -562 -132 -774 -272 -95 -63 -275 -238 -334
-325 -121 -182 -191 -401 -191 -601 0 -102 26 -271 56 -362 93 -283 313 -562
629 -798 132 -99 302 -209 570 -372 503 -305 663 -427 817 -625 141 -181 215
-386 225 -620 11 -268 -62 -475 -230 -652 -181 -190 -416 -281 -702 -270 -169
7 -292 38 -440 112 -331 164 -583 507 -661 899 -21 108 -47 136 -125 136 -111
0 -135 -39 -125 -203 13 -231 67 -843 76 -878 17 -61 48 -89 154 -139 182 -86
424 -156 676 -195 136 -22 519 -31 663 -16 416 42 760 196 1021 456 193 192
308 401 373 675 31 132 42 408 24 569 -54 459 -299 825 -755 1130 -110 74
-241 149 -616 352 -384 208 -493 278 -629 404 -180 168 -271 368 -271 598 0
133 22 233 77 347 39 81 59 108 137 186 175 174 377 254 644 254 491 0 829
-312 916 -845 21 -125 32 -152 67 -170 63 -33 133 -4 144 59 4 18 2 93 -4 167
-6 74 -22 292 -36 486 -14 203 -29 362 -36 375 -21 41 -52 68 -88 78 -162 43
-1050 86 -1252 60z"/>
<path d="M2110 7590 c-163 -4 -275 -11 -292 -18 -51 -21 -76 -112 -43 -159 19
-28 61 -40 162 -47 210 -16 341 -104 390 -262 16 -52 18 -96 18 -359 0 -304
-8 -773 -25 -1520 -5 -225 -17 -745 -25 -1155 -18 -868 -25 -952 -90 -1079
-73 -142 -198 -218 -409 -246 -67 -9 -106 -47 -106 -105 0 -33 6 -48 29 -71
l29 -29 770 0 770 0 30 25 c34 28 48 79 32 119 -16 43 -63 64 -159 71 -286 22
-417 137 -467 412 -30 169 -30 719 2 2503 4 190 9 517 13 726 l6 382 1060
-2116 c583 -1164 1068 -2124 1078 -2134 20 -21 70 -24 86 -4 11 13 56 129 347
896 241 632 425 1110 605 1571 87 223 159 410 158 415 0 5 -48 90 -107 189
-99 165 -110 180 -138 183 -53 5 -5 111 -506 -1123 -154 -379 -282 -693 -284
-697 -5 -8 -164 306 -344 677 -43 88 -160 327 -260 530 -175 355 -255 518
-472 965 -128 262 -140 286 -581 1205 l-125 260 -444 1 c-243 0 -562 -3 -708
-6z"/>
</g>
</svg>
